<svg data-astro-glyph="cancer" data-astro-glyph-category="zodiac" xmlns="http://www.w3.org/2000/svg" width="48" height="48" viewBox="0 0 48 48">
<g transform="translate(24 24) scale(24)" color="#1f2933" fill="none" stroke="#1f2933" stroke-width="0.14" stroke-linecap="round" stroke-linejoin="round">
<g transform="scale(0.0190187) translate(-332.875000 -71.429584)"><path d="M 310.26562,78.913956 C 312.16145,80.122304 313.98437,81.101469 315.73438,81.851456 C 320.19269,83.788967 325.14061,84.757716 330.57812,84.757706 C 333.99476,84.757716 337.23434,84.372299 340.29688,83.601456 C 340.02601,83.3723 339.77601,83.143134 339.54688,82.913956 C 338.60934,81.955635 337.92184,80.934803 337.48438,79.851456 C 337.02601,78.726472 336.79684,77.528556 336.79688,76.257706 C 336.79684,75.007725 337.02601,73.820227 337.48438,72.695206 C 337.96351,71.507729 338.65101,70.486897 339.54688,69.632706 C 340.52601,68.695232 341.53642,68.007732 342.57812,67.570206 C 343.66142,67.1119 344.84892,66.882734 346.14062,66.882706 C 347.49475,66.882734 348.68225,67.1119 349.70312,67.570206 C 350.91141,68.111899 351.92183,68.799398 352.73438,69.632706 C 353.67183,70.591063 354.35933,71.611896 354.79688,72.695206 C 355.25516,73.820227 355.48433,75.007725 355.48438,76.257706 C 355.48433,77.507723 355.25516,78.705638 354.79688,79.851456 C 354.29683,81.101469 353.50516,82.174385 352.42188,83.070206 C 350.901,84.320216 349.16142,85.361882 347.20312,86.195206 C 342.11976,88.361879 336.57809,89.445211 330.57812,89.445206 C 324.43227,89.445211 318.89061,88.361879 313.95312,86.195206 C 312.68229,85.632715 311.45312,85.038965 310.26562,84.413956 L 310.26562,78.913956 M 344.35938,80.632706 C 344.901,80.861886 345.49475,80.976469 346.14062,80.976456 C 346.78642,80.976469 347.38017,80.861886 347.92188,80.632706 C 348.48433,80.38272 348.99475,80.03897 349.45312,79.601456 C 349.86975,79.184805 350.2135,78.674388 350.48438,78.070206 C 350.7135,77.507723 350.82808,76.903557 350.82812,76.257706 C 350.82808,75.632725 350.7135,75.038975 350.48438,74.476456 C 350.25516,73.93481 349.91141,73.424394 349.45312,72.945206 C 349.05725,72.549395 348.54683,72.205645 347.92188,71.913956 C 347.38017,71.684812 346.78642,71.570229 346.14062,71.570206 C 345.49475,71.570229 344.901,71.684812 344.35938,71.913956 C 343.79684,72.163978 343.28642,72.507728 342.82812,72.945206 C 342.41142,73.361894 342.06767,73.87231 341.79688,74.476456 C 341.56767,75.038975 341.45309,75.632725 341.45312,76.257706 C 341.45309,76.903557 341.56767,77.507723 341.79688,78.070206 C 342.02601,78.611889 342.36976,79.122305 342.82812,79.601456 C 343.22392,79.997304 343.73434,80.341053 344.35938,80.632706 M 355.48438,63.945206 C 353.58849,62.736904 351.76558,61.757739 350.01562,61.007706 C 345.55725,59.070241 340.60934,58.101492 335.17188,58.101456 C 331.75518,58.101492 328.5156,58.486909 325.45312,59.257706 C 325.72394,59.486908 325.97394,59.716074 326.20312,59.945206 C 327.1406,60.903573 327.8281,61.924405 328.26562,63.007706 C 328.72394,64.132736 328.9531,65.330652 328.95312,66.601456 C 328.9531,67.851483 328.72394,69.038981 328.26562,70.163956 C 327.78644,71.351479 327.09894,72.372311 326.20312,73.226456 C 325.22394,74.163976 324.21352,74.851476 323.17188,75.288956 C 322.08853,75.747308 320.90103,75.976474 319.60938,75.976456 C 318.2552,75.976474 317.0677,75.747308 316.04688,75.288956 C 314.83853,74.747309 313.82812,74.05981 313.01562,73.226456 C 312.07812,72.268145 311.39062,71.247313 310.95312,70.163956 C 310.49479,69.038981 310.26562,67.851483 310.26562,66.601456 C 310.26562,65.351485 310.49479,64.15357 310.95312,63.007706 C 311.45312,61.757739 312.24479,60.684823 313.32812,59.788956 C 314.84895,58.538992 316.58853,57.497326 318.54688,56.663956 C 323.63019,54.497329 329.17185,53.413997 335.17188,53.413956 C 341.31767,53.413997 346.85933,54.497329 351.79688,56.663956 C 353.06766,57.226493 354.29683,57.820243 355.48438,58.445206 L 355.48438,63.945206 M 321.39062,62.226456 C 320.84894,61.997322 320.25519,61.882739 319.60938,61.882706 C 318.96353,61.882739 318.36978,61.997322 317.82812,62.226456 C 317.26561,62.476488 316.7552,62.820238 316.29688,63.257706 C 315.8802,63.674403 315.53645,64.18482 315.26562,64.788956 C 315.03645,65.351485 314.92187,65.955651 314.92188,66.601456 C 314.92187,67.226483 315.03645,67.820233 315.26562,68.382706 C 315.49478,68.924398 315.83853,69.434814 316.29688,69.913956 C 316.6927,70.309813 317.20311,70.653563 317.82812,70.945206 C 318.36978,71.174396 318.96353,71.288979 319.60938,71.288956 C 320.25519,71.288979 320.84894,71.174396 321.39062,70.945206 C 321.95311,70.69523 322.46353,70.35148 322.92188,69.913956 C 323.33852,69.497314 323.68227,68.986898 323.95312,68.382706 C 324.18227,67.820233 324.29686,67.226483 324.29688,66.601456 C 324.29686,65.955651 324.18227,65.351485 323.95312,64.788956 C 323.72394,64.24732 323.38019,63.736903 322.92188,63.257706 C 322.52603,62.861904 322.01561,62.518155 321.39062,62.226456" fill="currentColor" stroke="none" stroke-linecap="round" stroke-linejoin="round"/></g>
</g>
</svg>