<svg data-astro-glyph="jupiter" data-astro-glyph-category="planet" xmlns="http://www.w3.org/2000/svg" width="48" height="48" viewBox="0 0 48 48">
<g transform="translate(24 24) scale(24)" color="#1f2933" fill="none" stroke="#1f2933" stroke-width="0.14" stroke-linecap="round" stroke-linejoin="round">
<g transform="scale(0.0209524) translate(-165.000000 -115.000000)"><path d="M 174,95 L 174,134" fill="none" stroke="currentColor" stroke-width="3" stroke-linecap="round" stroke-linejoin="round"/><path d="M 180,124 L 151,124" fill="none" stroke="currentColor" stroke-width="3" stroke-linecap="round" stroke-linejoin="round"/><path d="M 154,109 C 153,109 151,108 151,104 C 151,100 155,96 159,96 C 163,96 167,99 167,106 C 167,113 162,124 152,124" fill="none" stroke="currentColor" stroke-width="3" stroke-linecap="round" stroke-linejoin="round"/><path d="M 156 109.5 A 0.5 0.5 0 1 1  155,109.5 A 0.5 0.5 0 1 1  156 109.5 z" transform="matrix(3.85432,0,0,3.99998,-445.3468,-329.9978)" fill="currentColor" stroke="none" stroke-linecap="round" stroke-linejoin="round"/></g>
</g>
</svg>